<?xml version="1.0" standalone="no"?>
<!DOCTYPE svg PUBLIC "-//W3C//DTD SVG 20010904//EN"
 "http://www.w3.org/TR/2001/REC-SVG-20010904/DTD/svg10.dtd">
<svg version="1.0" xmlns="http://www.w3.org/2000/svg"
 width="931.000000pt" height="931.000000pt" viewBox="0 0 931.000000 931.000000"
 preserveAspectRatio="xMidYMid meet">
<metadata>
Created by potrace 1.11, written by Peter Selinger 2001-2013
</metadata>
<g transform="translate(0.000000,931.000000) scale(0.100000,-0.100000)"
fill="#000000" stroke="none">
<path d="M2950 9300 c-150 -45 -258 -167 -278 -316 -11 -81 4 -149 66 -300 28
-67 112 -274 187 -460 75 -186 143 -352 150 -369 7 -16 71 -172 140 -345 70
-173 161 -398 202 -500 160 -395 337 -833 404 -1000 39 -96 77 -188 84 -205 7
-16 36 -88 65 -160 28 -71 58 -143 65 -160 7 -16 49 -120 93 -230 44 -110 125
-310 180 -445 54 -135 120 -299 147 -365 26 -66 59 -135 73 -154 59 -80 194
-80 254 0 17 22 96 213 350 844 55 138 106 264 113 280 7 17 38 91 68 165 30
74 81 203 115 285 33 83 124 308 202 500 77 193 145 359 150 370 11 23 153
376 180 445 16 43 53 133 71 175 4 11 24 61 44 110 20 50 40 99 45 110 5 11
123 299 261 640 l252 620 1 100 c0 88 -3 107 -26 156 -113 237 -423 291 -607
107 -67 -67 -71 -78 -171 -453 -12 -44 -23 -87 -25 -95 -2 -8 -23 -82 -45
-165 -23 -82 -43 -157 -45 -166 -4 -21 -152 -569 -169 -629 -7 -25 -23 -81
-35 -125 -11 -44 -33 -123 -47 -175 -14 -52 -28 -102 -30 -110 -2 -8 -12 -49
-23 -90 -19 -76 -57 -215 -105 -390 -14 -52 -58 -214 -97 -360 -39 -146 -77
-287 -85 -315 -8 -27 -39 -141 -68 -252 -30 -112 -65 -224 -78 -249 -30 -62
-118 -139 -187 -165 -104 -38 -234 -29 -325 25 -86 51 -162 160 -180 261 -3
14 -16 65 -30 113 -13 48 -46 166 -71 262 -89 332 -106 395 -110 410 -2 8 -11
42 -20 75 -9 33 -18 69 -20 79 -3 10 -9 33 -14 50 -6 17 -35 123 -65 236 -30
113 -64 241 -76 285 -64 237 -81 301 -85 315 -2 8 -15 56 -28 105 -14 50 -30
108 -36 130 -5 22 -16 65 -24 95 -21 76 -258 951 -262 970 -28 113 -67 235
-84 263 -32 53 -106 116 -169 145 -44 20 -75 26 -137 28 -44 1 -91 -1 -105 -6z"/>
<path d="M5664 8563 c-200 -218 -513 -510 -669 -625 -5 -5 -35 -27 -65 -51
-351 -276 -764 -500 -972 -526 -45 -5 -52 -9 -50 -26 3 -16 45 -172 132 -495
31 -114 67 -249 119 -445 28 -104 56 -205 62 -223 6 -19 12 -44 14 -55 4 -25
98 -372 116 -427 21 -64 82 -133 150 -170 59 -32 71 -35 149 -35 71 0 94 4
141 26 96 45 150 114 182 234 55 203 259 963 262 980 3 11 16 61 30 110 34
124 86 317 90 335 2 8 38 143 80 298 42 156 78 291 80 300 2 10 25 94 50 187
49 181 67 246 120 445 58 216 65 242 71 251 15 25 -11 0 -92 -88z"/>
<path d="M4869 4153 c-7 -17 -64 -50 -113 -67 -94 -31 -211 -14 -284 41 -18
14 -35 23 -38 20 -3 -2 -5 -751 -5 -1664 0 -1607 -1 -1662 -20 -1748 -45 -208
-153 -347 -331 -429 -114 -53 -151 -57 -534 -57 -209 0 -362 -4 -381 -10 -92
-29 -105 -167 -21 -219 33 -20 47 -20 1506 -20 1601 0 1520 -3 1558 55 22 34
22 103 0 137 -36 55 -50 57 -436 57 -370 0 -375 0 -479 33 -93 30 -171 79
-248 156 -69 69 -132 209 -152 337 -7 49 -11 576 -11 1724 0 910 -2 1656 -4
1658 -2 2 -6 0 -7 -4z"/>
</g>
</svg>
