<?xml version="1.0" encoding="UTF-8" standalone="no"?>
<svg
   xmlns:dc="http://purl.org/dc/elements/1.1/"
   xmlns:cc="http://creativecommons.org/ns#"
   xmlns:rdf="http://www.w3.org/1999/02/22-rdf-syntax-ns#"
   xmlns:svg="http://www.w3.org/2000/svg"
   xmlns="http://www.w3.org/2000/svg"
   viewBox="0 0 2560 1440"
   height="1440"
   width="2560"
   xml:space="preserve"
   id="svg2"
   version="1.1"><metadata
     id="metadata8"><rdf:RDF><cc:Work
         rdf:about=""><dc:format>image/svg+xml</dc:format><dc:type
           rdf:resource="http://purl.org/dc/dcmitype/StillImage" /></cc:Work></rdf:RDF></metadata><defs
     id="defs6"><clipPath
       id="clipPath18"
       clipPathUnits="userSpaceOnUse"><path
         id="path16"
         d="M 0,1080 H 1920 V 0 H 0 Z" /></clipPath></defs><g
     transform="matrix(1.3333333,0,0,-1.3333333,0,1440)"
     id="g10"><g
       id="g12"><g
         clip-path="url(#clipPath18)"
         id="g14"><g
           transform="translate(651.2812,597.2754)"
           id="g20"><path
             id="path22"
             style="fill:#222323;fill-opacity:1;fill-rule:nonzero;stroke:none"
             d="m 0,0 c 1.05,-0.754 2.029,-1.617 2.932,-2.594 0.902,-0.979 1.726,-1.917 2.48,-2.818 3.457,-4.362 6.163,-9.134 8.118,-14.32 1.952,-5.187 2.932,-10.638 2.932,-16.349 0,-1.354 -0.077,-2.407 -0.226,-3.157 -0.45,-8.422 -3.008,-16.012 -7.667,-22.777 -4.211,-6.314 -9.623,-11.314 -16.236,-14.996 -6.617,-3.685 -13.981,-5.525 -22.1,-5.525 H -44.65 c -8.119,0 -15.487,1.84 -22.1,5.525 -6.617,3.682 -12.029,8.682 -16.236,14.996 -1.205,1.804 -2.408,3.908 -3.609,6.315 l 20.973,16.236 c 0.45,-2.857 1.388,-5.525 2.818,-8.006 1.427,-2.48 3.193,-4.661 5.3,-6.54 2.104,-1.881 4.51,-3.346 7.216,-4.397 2.706,-1.053 5.56,-1.578 8.569,-1.578 h 9.021 c 6.162,0 11.501,1.991 16.011,5.975 4.51,3.983 7.216,8.908 8.118,14.772 0,0.598 0.035,1.201 0.113,1.803 0.073,0.599 0.112,1.202 0.112,1.804 0,3.306 -0.602,6.389 -1.803,9.246 -1.206,2.855 -2.858,5.373 -4.961,7.555 -2.108,2.178 -4.588,3.946 -7.443,5.3 -2.857,1.352 -5.863,2.103 -9.02,2.255 h -12.854 -0.902 c -5.564,0.147 -10.789,1.24 -15.673,3.269 -4.887,2.029 -9.284,4.771 -13.191,8.232 -2.108,1.501 -3.912,3.304 -5.413,5.412 -3.46,4.358 -6.167,9.133 -8.119,14.319 -1.955,5.187 -2.931,10.634 -2.931,16.35 v 3.156 c 0.751,8.57 3.383,16.16 7.893,22.777 4.207,6.314 9.619,11.31 16.237,14.996 6.613,3.682 13.981,5.525 22.099,5.525 h 14.658 c 8.119,0 15.522,-1.843 22.212,-5.525 6.689,-3.686 12.139,-8.682 16.35,-14.996 0.451,-0.754 0.937,-1.579 1.466,-2.481 0.525,-0.902 1.014,-1.73 1.466,-2.48 L -8.795,41.268 c -1.352,5.412 -4.21,9.922 -8.569,13.53 -4.363,3.608 -9.398,5.412 -15.109,5.412 h -9.02 c -3.009,0 -5.903,-0.528 -8.682,-1.578 -2.784,-1.054 -5.225,-2.52 -7.329,-4.398 -2.107,-1.881 -3.873,-4.098 -5.3,-6.652 -1.43,-2.558 -2.368,-5.264 -2.818,-8.119 -0.152,-0.602 -0.226,-1.205 -0.226,-1.803 v -1.805 c 0,-3.308 0.599,-6.391 1.804,-9.246 1.201,-2.857 2.855,-5.377 4.961,-7.554 2.104,-2.181 4.584,-3.947 7.442,-5.299 2.854,-1.354 5.863,-2.108 9.02,-2.255 h 12.854 0.902 c 5.56,-0.152 10.786,-1.24 15.673,-3.271 C -8.309,6.201 -3.911,3.456 0,0" /></g><g
           transform="translate(749.8271,539.0937)"
           id="g24"><path
             id="path26"
             style="fill:#222323;fill-opacity:1;fill-rule:nonzero;stroke:none"
             d="m 0,0 h 73.516 v -23.678 h -97.42 V 140.943 H 71.937 V 117.715 H 0 V 91.662 78.185 61.789 H 64.721 V 39.238 H 0 Z" /></g><g
           transform="translate(1098.0098,539.0937)"
           id="g28"><path
             id="path30"
             style="fill:#222323;fill-opacity:1;fill-rule:nonzero;stroke:none"
             d="m 0,0 h 73.516 v -23.678 h -97.42 V 140.943 H 71.938 V 117.715 H 0 V 91.662 78.185 61.789 H 64.721 V 39.238 H 0 Z" /></g><g
           transform="translate(1252.4824,514.5137)"
           id="g32"><path
             id="path34"
             style="fill:#222323;fill-opacity:1;fill-rule:nonzero;stroke:none"
             d="M 0,0 H -22.776 V 168.454 L 84.114,40.592 v 124.931 h 22.777 V 0 H 84.79 L 0,104.41 Z" /></g><g
           transform="translate(1000.5312,707.5898)"
           id="g36"><path
             id="path38"
             style="fill:#ef3d3c;fill-opacity:1;fill-rule:nonzero;stroke:none"
             d="m 0,0 -33.4,-124.69 c -2.162,-5.18 -6.97,-8.4 -12.6,-8.4 -5.63,0 -10.44,3.22 -12.6,8.4 l -18.85,70 C -62.89,-54.92 -25.812,-30.12 0,0" /></g><g
           transform="translate(1021.9248,734.5898)"
           id="g40"><path
             id="path42"
             style="fill:#ef3d3c;fill-opacity:1;fill-rule:nonzero;stroke:none"
             d="m 0,0 v 0 c 11.1,0 18.671,-11.234 14.506,-21.523 l -75.554,-186.603 c -2.308,-5.702 -10.382,-5.702 -12.69,0 l -75.554,186.603 C -153.458,-11.234 -145.886,0 -134.787,0 h 0.001 c 6.368,0 12.1,-3.857 14.498,-9.756 l 38.397,-142.577 c 5.288,-13.008 23.707,-13.008 28.995,0 L -14.498,-9.756 C -12.1,-3.857 -6.367,0 0,0" /></g><g
           transform="translate(1015.0518,355.7656)"
           id="g44"><path
             id="path46"
             style="fill:#ef3d3c;fill-opacity:1;fill-rule:nonzero;stroke:none"
             d="m 0,0 h -27.557 c 0,0 -22.67,0.843 -23.529,26.638 v 136.841 c -2.468,-2.401 -5.825,-3.803 -9.438,-3.803 -3.601,0 -6.958,1.402 -9.426,3.803 V 26.638 C -70.81,0.843 -93.479,0 -93.479,0 h -27.562 c -2.859,0 -5.177,-2.318 -5.177,-5.178 0,-2.859 2.318,-5.177 5.177,-5.177 H 0 c 2.859,0 5.178,2.318 5.178,5.177 C 5.178,-2.318 2.859,0 0,0" /></g><g
           transform="translate(569.6309,494.5898)"
           id="g48"><path
             id="path50"
             style="fill:#222323;fill-opacity:1;fill-rule:nonzero;stroke:none"
             d="m 0,0 h 316.47 c 4.971,0 9,-4.029 9,-9 0,-4.971 -4.029,-9 -9,-9 H 0 c -4.97,0 -9,4.029 -9,9 0,4.971 4.03,9 9,9" /></g><g
           transform="translate(1359.3711,485.5898)"
           id="g52"><path
             id="path54"
             style="fill:#222323;fill-opacity:1;fill-rule:nonzero;stroke:none"
             d="m 0,0 v 0 c 0,-4.971 -4.029,-9 -9,-9 h -327.4 c -4.971,0 -9,4.029 -9,9 0,4.971 4.029,9 9,9 H -9 C -4.029,9 0,4.971 0,0" /></g></g></g></g></svg>